<?xml version="1.0" encoding="UTF-8"?>
<svg xmlns="http://www.w3.org/2000/svg" xmlns:xlink="http://www.w3.org/1999/xlink" width="30pt" height="30.000001pt" viewBox="0 0 30 30.000001" version="1.2">
<defs>
<clipPath id="clip1">
  <path d="M 2.117188 3 L 27 3 L 27 27.761719 L 2.117188 27.761719 Z M 2.117188 3 "/>
</clipPath>
</defs>
<g id="surface1">
<g clip-path="url(#clip1)" clip-rule="nonzero">
<path style=" stroke:none;fill-rule:nonzero;fill:rgb(100%,100%,100%);fill-opacity:1;" d="M 4.5 7.691406 L 1.886719 5.574219 L 1.847656 12.75 L 8.851562 11.214844 L 6.238281 9.105469 C 9.746094 4.777344 16.089844 4.113281 20.410156 7.609375 C 24.738281 11.117188 25.40625 17.460938 21.90625 21.789062 C 19.917969 24.246094 17.003906 25.523438 14.070312 25.523438 L 14.070312 27.761719 L 13.960938 27.761719 C 17.589844 27.792969 21.1875 26.226562 23.644531 23.195312 C 27.925781 17.910156 27.113281 10.152344 21.824219 5.875 C 16.539062 1.59375 8.78125 2.402344 4.5 7.691406 Z M 4.5 7.691406 "/>
</g>
</g>
</svg>
