<?xml version="1.0" encoding="UTF-8"?>
<svg xmlns="http://www.w3.org/2000/svg" xmlns:xlink="http://www.w3.org/1999/xlink" width="30pt" height="30.000001pt" viewBox="0 0 30 30.000001" version="1.2">
<defs>
<clipPath id="clip1">
  <path d="M 3.773438 3.261719 L 26.273438 3.261719 L 26.273438 25.761719 L 3.773438 25.761719 Z M 3.773438 3.261719 "/>
</clipPath>
<clipPath id="clip2">
  <path d="M 1.535156 14 L 28.324219 14 L 28.324219 27.839844 L 1.535156 27.839844 Z M 1.535156 14 "/>
</clipPath>
<clipPath id="clip3">
  <path d="M 1.535156 1.050781 L 28.324219 1.050781 L 28.324219 15 L 1.535156 15 Z M 1.535156 1.050781 "/>
</clipPath>
</defs>
<g id="surface1">
<g clip-path="url(#clip1)" clip-rule="nonzero">
<path style=" stroke:none;fill-rule:nonzero;fill:rgb(100%,100%,100%);fill-opacity:1;" d="M 18.570312 14.511719 L 26.074219 7.027344 C 26.273438 6.828125 26.273438 6.511719 26.074219 6.3125 L 23.214844 3.460938 C 23.121094 3.367188 22.992188 3.3125 22.859375 3.3125 C 22.722656 3.3125 22.597656 3.367188 22.5 3.460938 L 14.996094 10.945312 L 7.492188 3.460938 C 7.304688 3.273438 6.96875 3.273438 6.777344 3.460938 L 3.921875 6.3125 C 3.824219 6.40625 3.773438 6.535156 3.773438 6.667969 C 3.773438 6.804688 3.824219 6.929688 3.921875 7.027344 L 11.425781 14.511719 L 3.921875 21.996094 C 3.824219 22.089844 3.773438 22.21875 3.773438 22.351562 C 3.773438 22.484375 3.824219 22.613281 3.921875 22.707031 L 6.777344 25.558594 C 6.878906 25.65625 7.007812 25.707031 7.136719 25.707031 C 7.265625 25.707031 7.394531 25.65625 7.492188 25.558594 L 14.996094 18.074219 L 22.5 25.558594 C 22.699219 25.757812 23.019531 25.757812 23.214844 25.558594 L 26.074219 22.707031 C 26.273438 22.511719 26.273438 22.191406 26.074219 21.996094 Z M 18.570312 14.511719 "/>
</g>
<g clip-path="url(#clip2)" clip-rule="nonzero">
<path style=" stroke:none;fill-rule:nonzero;fill:rgb(95.689392%,26.269531%,21.179199%);fill-opacity:1;" d="M 28.324219 14.445312 L 1.535156 14.445312 C 1.535156 21.84375 7.53125 27.839844 14.929688 27.839844 C 22.328125 27.839844 28.324219 21.84375 28.324219 14.445312 Z M 28.324219 14.445312 "/>
</g>
<g clip-path="url(#clip3)" clip-rule="nonzero">
<path style=" stroke:none;fill-rule:nonzero;fill:rgb(92.549133%,93.728638%,94.509888%);fill-opacity:1;" d="M 14.929688 1.050781 C 7.53125 1.050781 1.535156 7.046875 1.535156 14.445312 L 28.324219 14.445312 C 28.324219 7.046875 22.328125 1.050781 14.929688 1.050781 Z M 14.929688 1.050781 "/>
</g>
</g>
</svg>
