<?xml version="1.0" encoding="utf-8"?>

<!DOCTYPE svg PUBLIC "-//W3C//DTD SVG 1.1//EN" "http://www.w3.org/Graphics/SVG/1.1/DTD/svg11.dtd">
<svg version="1.1" id="Layer_1" xmlns="http://www.w3.org/2000/svg" xmlns:xlink="http://www.w3.org/1999/xlink" x="0px" y="0px" viewBox="612.6503 175.9145 1494.2572 2070.0542"
	 xml:space="preserve">
    <g id="hair">
          <path fill="#644D35" stroke="#644D35" stroke-width="0.5" d="M1069.71,461.33c19.99-8.99,41.29-15.7,63.24-17.29
       c17.6801-1.25,36.0901,1.4,51.64,10.3c8.73,4.91,16.4601,11.6,22.63,19.5c-0.02,0.77-0.0599,2.32-0.08,3.1
       c21.8099,0.54,44.02,4.16,63.5,14.42c13.73,7.67,26.4399,18.86,31.89,34c4.1699,10.29,3.36,22.08-0.89,32.21
       c-6.1801,14.4-17.15,26.14-29.09,36.01c-18.2201,14.97-38.78,26.97-60.2101,36.7c-0.22,0.71-0.6699,2.1299-0.89,2.83
       c-0.83-0.8-1.6599-1.6-2.46-2.39c-0.53,0.95-1.02,1.92-1.52,2.88c-21.28,39.82-54.45,73.63-94.95,93.92
       c-5.61,2.58-11.25,5.13-16.96,7.47c-10.1001,3.27-20.16,7.24-30.8401,7.9c-7.49,5.49-12.13,14.13-15.89,22.45
       c-0.87,0.68-1.6899,1.53-2.7999,1.77c-5.39,1.45-11,1.99-16.3401,3.61c-2.2,0.83-4.6899,2.64-4.5099,5.27
       c0.1899,4.69,0.72,9.37,0.7,14.07c-0.2,7,6.8199,10.77,9.4,16.64c4.3099,9.95,7.34,20.56,13.2899,29.72
       c1.8601,2.88,4.65,4.99,7.6101,6.67c2,19.12,1.72,39-4.79,57.29c-1.1,3.41-3.21,6.45-3.96,9.99c-2.17,1.46-4.2101,3.14-5.8401,5.2
       c-4.1899,4.98-9.4299,9.19-15.52,11.57c-3.59,1.38-7.5399,1.41-11.08,2.89c-13.49,6.8-26.14,18.02-29.57,33.3199
       c-3.53,17.08,3.39,34.3,12.88,48.2401c3.05,4.5099,6.08,9.24,10.65,12.39c4.36,3.46,9.99,5.14,13.65,9.52
       c13.75,11.27,26.02,24.8199,34.03,40.8199c4.76,9.51,8.7,19.4501,11.6,29.6901c-7.51,2.25-14.99,4.65-22.4,7.1899
       c-4.01-15.61-13.9399-30.09-28.4899-37.5399c-9.05-5.13-19.56-6.12-29.3-9.3101c-16.96-5.2899-33.44-12.85-47.46-23.89
       c-6.16-5.1699-12.7-10.52-16.1-17.9999c-6.14-13.21-7.77-28.09-7.02-42.51c1.13-20.6,6.58-40.73,14.02-59.89
       c2.33-6.23,5.89-11.86,8.76-17.82c6.32-18.74,4.04-40.27-6.42-57.11c-2.01-3.54-4.92-6.47-6.76-10.09
       c-9.4-19.24-14.62-40.61-14.29-62.06c0.28-24.84,7.9-49.33,20.55-70.62c4.01-6.45,8.13-13.12,14.15-17.9
       c12.9901-9.52,24.6801-21.08,33.1201-34.88c10.69-17.25,15.31-37.31,19.16-57c4.65-22.95,8.82-46.44,19.38-67.58
       c11.1-22.23,27.03-41.85,45.47-58.42C1066.34,464.89,1068.74,463.68,1069.71,461.33z" />
          <path fill="#463626" stroke="#463626" stroke-width="0.5"
            d="M1247.9301,452.99c39.7699-2.62,81.0399,2.04,117.0399,20.06
       c29.64,14.75,54.79,39,69.15,68.97c3.83,7.65,6.11,15.93,9.12,23.91c10.46,29.12,20.79,58.88,22.47,90.03
       c0.5801,6.34-0.4299,12.91,1.74,19.03c2.37,7.02,7.3101,12.91,13.0601,17.47c3.89,3.23,8.67,5.22,12.36,8.74
       c12.12,10.34,22.28,23.95,25.25,39.9c3.47,17.63-2.15,35.73-11.0599,50.89c-5.9401,10.08-13.2201,19.34-21.3501,27.75
       c-4.02,4.32-8.89,7.83-12.36,12.66c-6.8199,8.7599-11.6699,19.39-12.11,30.6c-0.84,15.44,6.21,30.23,15.9301,41.83
       c4.84,6.18,11.5699,10.42,16.9199,16.1c11.8401,11.81,21.3401,27.1,22.4,44.16c1.2,17.41-6.35,34.15-16.6899,47.75
       c-7.8601,10.35-17.28,19.4799-27.5801,27.3599c-4.46,2.12-9.1,4.3-14.09,4.63c-20.8199,2.2301-41.8,7.41-59.76,18.52
       c-15.4,9.4501-27.79,24.2001-32.91,41.67c-10.4399-3.5601-20.8999-7.11-31.5499-10c-0.15-7.27,1.11-14.78,5.26-20.89
       c4.5299-7.61,11.59-13.22,18.6899-18.3c17.3101-12.13,36.27-21.84,52.6-35.3699c11.55-9.82,22.9701-20.67,29.29-34.73
       c5.42-10.98,5.9301-24.55,0.02-35.46c-7.51-14.99-21.67-25.03-35.8201-33.21c-8.88-4.71-17.8999-9.29-27.47-12.46
       c-2.66-0.77-5.4-1.9-6.62-4.58c-11.65-18.23-10.0699-41.19-5.71-61.45c6.0399-4.96,8.83-12.44,12.11-19.28
       c3.01-6.45,4.3199-13.69,8.53-19.55c1.9399-3.01,4.38-5.74,5.8199-9.05c0.79-4.51,0.8101-9.12,1.23-13.67
       c0.4301-3.15-1.6-5.75-3.2-8.21c1.73-17.01-2.77-34.05-10.34-49.19c-7.05-14.17-16.3501-27.21-27.3-38.63
       c-35.8,5.13-73.0601-2.53-104.22-20.79c-12.87-7.47-24.88-16.49-35.3301-27.09c0.2201-0.7,0.67-2.12,0.89-2.83
       c21.4301-9.73,41.99-21.73,60.2101-36.7c11.9399-9.87,22.9099-21.61,29.09-36.01c4.25-10.13,5.0599-21.92,0.89-32.21
       c-5.4501-15.14-18.16-26.33-31.89-34c-19.48-10.26-41.6901-13.88-63.5-14.42c0.02-0.78,0.0599-2.33,0.08-3.1
       c0.4401,0.52,1.3301,1.57,1.77,2.1c4.23-6.56,11.55-10.04,18.14-13.75C1233.9399,458.91,1240.65,455.09,1247.9301,452.99z" />

          <path fill="#301D16" stroke="#301D16" stroke-width="0.5" d="M1368.9301,908.9c0.98-3.22,4.9399-3.17,7.5499-4.3
       c9.5701,3.17,18.59,7.75,27.47,12.46c14.15,8.18,28.3101,18.22,35.8201,33.21c5.91,10.91,5.4,24.48-0.02,35.46
       c-6.3199,14.06-17.74,24.91-29.29,34.73c-16.33,13.53-35.2899,23.2399-52.6,35.3699c-7.1,5.0801-14.16,10.6901-18.6899,18.3
       c-4.15,6.11-5.41,13.62-5.26,20.89c-12.99-3.34-26.0601-7.1-39.5-7.89c-5.37-6.37-10.5901-12.87-16.1-19.11
       c0.3099-11.22,0.46-22.4401,0.7-33.66c16.21-15.57,31.11-32.51,44.99-50.17c1.22-0.37,1.87-1.19,1.95-2.48
       c1.89-2.32,3.6901-4.7,5.4701-7.11c0.0399-0.05,0.12-0.16,0.1599-0.21c1.62-2.24,3.2301-4.49,4.8201-6.75
       c0.0499-0.08,0.15-0.22,0.2-0.29c1.29-1.89,2.5601-3.8,3.8201-5.7c0.0599-0.08,0.1599-0.23,0.21-0.31
       c0.45-0.6801,1.34-2.05,1.79-2.73c0.0399-0.06,0.11-0.17,0.14-0.23C1352.51,942.54,1361.35,926,1368.9301,908.9z" />
          <path fill="#301D16" stroke="#301D16" stroke-width="0.5" d="M1041.59,915.57c1.63-2.06,3.67-3.74,5.8401-5.2
       c1.25,3.02,2.58,6,3.96,8.98c0.04,0.08,0.12,0.25,0.16,0.34c6.6499,14.9,14.97,28.99,23.8899,42.63c0.05,0.08,0.14,0.22,0.1901,0.3
       c2.24,3.25,4.5,6.49,6.8,9.72c0.0499,0.0699,0.1499,0.21,0.2,0.28c0.91,1.23,1.83,2.47,2.78,3.73
       c0.0599,0.07,0.1599,0.21,0.21,0.27c2.26,2.93,4.52,5.86,6.8101,8.78c0.0399,0.05,0.12,0.15,0.1599,0.2
       c13.38,16.42,27.23,32.53,42.5801,47.17c0.3099,0.53,0.9299,1.6,1.24,2.13c1.5,4.21,1.09,8.72,1.23,13.11
       c0.14,6.6799,0.2,13.36,0.26,20.05c-6.8301,7.1899-13.05,15.08-19.09,22.99c-16.9301,4.0299-33.92,7.88-50.5801,12.96
       c-2.9-10.24-6.84-20.1801-11.6-29.6901c-8.01-16-20.28-29.5499-34.03-40.8199c-3.66-4.38-9.29-6.0601-13.65-9.52
       c-4.57-3.15-7.6-7.88-10.65-12.39c-9.49-13.94-16.41-31.16-12.88-48.2401c3.43-15.3,16.08-26.52,29.57-33.3199
       c3.54-1.48,7.49-1.51,11.08-2.89C1032.16,924.76,1037.4,920.55,1041.59,915.57z" />
        </g>







        <path fill="#E5BC84" stroke="#E5BC84" stroke-width="0.5" d="M1208.99,630.72c0.8,0.79,1.63,1.59,2.46,2.39
       c10.4501,10.6,22.4601,19.62,35.3301,27.09c31.1599,18.26,68.4199,25.92,104.22,20.79c10.95,11.42,20.25,24.46,27.3,38.63
       c7.5699,15.14,12.0699,32.18,10.34,49.19c-23.51-7.03-48.38-6.89-72.6901-6.63c-12.01-0.25-23.86,2.2-35.86,2.23
       c-10.64,0.8-21.2799,2.15-31.74,4.22c-8.27,2.7-16.9199,3.85-25.25,6.3c-5.96,1.64-12.1699,2.95-18.34,1.81
       c0.79-0.17,2.38-0.52,3.17-0.7c0.1499-42.0099,0.0399-84.02,0.0699-126.03c-0.08-5.47,0.41-10.98-0.53-16.41
       C1207.97,632.64,1208.46,631.67,1208.99,630.72 M1279.0601,734.24c-14.3501,4.99-29.1901,13.14-35.89,27.5
       c22.76-10.32,46.6699-17.87,70.83-24.12c19.49-4.89,39.14-9.2,59-12.34c-6.27-1.1801-12.6899-0.7401-19.03-0.97
       C1328.76,724.35,1303.13,726.2,1279.0601,734.24z" />
        <path fill="#F1D4A8" stroke="#F1D4A8" stroke-width="0.5" d="M1207.47,633.6c0.9401,5.4301,0.4501,10.94,0.53,16.41
       c-0.03,42.01,0.08,84.02-0.0699,126.03c-0.79,0.18-2.38,0.53-3.17,0.7c-12.1801-0.78-23.72-5.34-35.77-7.02
       c-25.73-4.47-51.91-5.4399-77.99-5.2c-14.3-0.04-28.6,0.76-42.8199,2.24l0.6499-1.42c3.76-8.32,8.4-16.96,15.89-22.45
       c10.6801-0.66,20.74-4.63,30.8401-7.9c27.75,6.81,55.2999,14.95,81.36,26.8c-6.4701-13.64-20.25-21.81-33.9301-26.82
       c-9.86-3.5099-20.1-6.0099-30.47-7.45C1153.02,707.23,1186.1899,673.42,1207.47,633.6z" />
        <path fill="#2C3D4D" stroke="#2C3D4D" stroke-width="0.5" d="M1279.0601,734.24c24.0699-8.04,49.7-9.89,74.9099-9.93
       c6.3401,0.23,12.76-0.21,19.03,0.97c-19.86,3.14-39.51,7.45-59,12.34c-24.16,6.25-48.0699,13.8-70.83,24.12
       C1249.87,747.38,1264.71,739.23,1279.0601,734.24z" />
        <path fill="#2C3D4D" stroke="#2C3D4D" stroke-width="0.5"
          d="M1095.5601,734.99c5.71-2.34,11.35-4.89,16.96-7.47
       c10.37,1.44,20.61,3.94,30.47,7.45c13.6801,5.01,27.46,13.1801,33.9301,26.82C1150.86,749.94,1123.3101,741.8,1095.5601,734.99z" />
        <path id="google" fill="#453F3F" stroke="#453F3F" stroke-width="0.5" d="M1280.09,764.41c12-0.03,23.85-2.48,35.86-2.23
       c24.3101-0.26,49.1801-0.4,72.6901,6.63c1.6,2.46,3.63,5.06,3.2,8.21c-0.4199,4.55-0.4399,9.16-1.23,13.67
       c-1.4399,3.31-3.88,6.04-5.8199,9.05c-4.2101,5.86-5.52,13.1-8.53,19.55c-3.28,6.84-6.0701,14.32-12.11,19.28
       c-10.48,5.91-22.63,7.27-34.37,8.51c-13.5801,0.94-27.2001,1.73-40.8,1c-11.45-0.74-23.13-1.06-34.11-4.69
       c-5.58-1.83-10.62-5.26-14.22-9.91c-6.91-8.88-11.27-19.38-15.34-29.78c-1.2301-2.88-2.39-6.11-5.1101-7.92
       c-3.58-2.32-8.0299-2.38-12.13-2.3701c-5.2599,0.1201-11.6,1.48-13.84,6.9c-3.1699,7.51-5.2999,15.46-9.09,22.73
       c-3.9301,7.6-8.67,15.47-16.42,19.68c-8.1599,4.4301-17.59,5.3701-26.65,6.39c-22.25,1.91-44.86,3.27-66.97-0.66
       c-6.47-1.09-12.97-2.53-18.9199-5.36c-2.9601-1.6801-5.75-3.79-7.6101-6.67c-5.95-9.16-8.98-19.77-13.2899-29.72
       c-2.5801-5.87-9.6-9.64-9.4-16.64c0.02-4.7-0.51-9.38-0.7-14.07c-0.1801-2.63,2.3099-4.44,4.5099-5.27
       c5.3401-1.62,10.9501-2.16,16.3401-3.61c1.11-0.24,1.9299-1.09,2.7999-1.77l-0.6499,1.42c14.22-1.48,28.5199-2.28,42.8199-2.24
       c26.08-0.24,52.26,0.73,77.99,5.2c12.05,1.6801,23.59,6.2401,35.77,7.02c6.17,1.14,12.38-0.17,18.34-1.81
       c8.3301-2.45,16.98-3.6,25.25-6.3C1258.8101,766.56,1269.45,765.21,1280.09,764.41 M1298.5699,767.89
       c-15.63,1.27-31.3999,2.32-46.7,5.98c-5.53,1.67-11.65,2.9-15.87,7.13c-4.13,4.18-3.86,10.58-3.34,16
       c1.35,9.81,4.6799,19.34,9.34,28.06c3.62,6.88,9.4301,12.97,17.0601,15.21c9.24,2.84,18.97,3.53,28.5699,4.29
       c14.66,0.32,29.42,0.59,43.98-1.57c10.38-1.4,21.8-2.14,30.12-9.27c5.87-4.83,7.14-12.64,9.8-19.33c3.98-9.96,4.87-20.79,5.27-31.4
       c0.4299-4.39-1.6101-9.21-5.92-10.87c-14.3101-5.6-29.9301-4.31-44.95-5.3C1316.83,767.61,1307.67,767.15,1298.5699,767.89
        M1073.52,769.89c-8.8301,0.72-17.8301,1.45-26.16,4.68c-2.8099,0.75-2.79,4.08-3.3199,6.39c-3.48,19.15,1.97,38.91,11.6899,55.44
       c3.4,3.84,8.54,5.52,13.35,6.89c22.2301,5.13,45.36,5.28,67.91,2.42c10.48-1.2,21.66-2.04,30.71-8.01
       c6.2101-4.58,9.4701-11.91,12.37-18.83c3.5901-9.47,6.16-19.64,5.29-29.83c-0.42-4.94-4.28-8.91-8.75-10.62
       c-8.54-3.32-17.66-4.69-26.6799-5.95C1124.64,768.81,1099,769.16,1073.52,769.89z" />
        <path fill="#E5BC84" stroke="#E5BC84" stroke-width="0.5" d="M1298.5699,767.89c9.1001-0.74,18.26-0.28,27.3601-1.07
       c15.0199,0.99,30.6399-0.3,44.95,5.3c4.3099,1.66,6.35,6.48,5.92,10.87c-0.4,10.61-1.29,21.44-5.27,31.4
       c-2.66,6.69-3.9301,14.5-9.8,19.33c-8.3199,7.13-19.74,7.8701-30.12,9.27c-14.5599,2.16-29.3199,1.89-43.98,1.57
       c-9.6-0.76-19.33-1.45-28.5699-4.29c-7.63-2.24-13.4401-8.33-17.0601-15.21c-4.66-8.72-7.99-18.25-9.34-28.06
       c-0.52-5.42-0.79-11.82,3.34-16c4.22-4.23,10.34-5.46,15.87-7.13C1267.17,770.21,1282.9399,769.16,1298.5699,767.89
        M1260.16,793.99l1.2899-0.35c-5.99,5.61-12.1499,11.21-16.4099,18.32c9.6799,3.94,19.9399,5.96,30.0499,8.43
       c3.3,1.77,7.2201,1.78,10.85,2.41c18.1101,1.59,37.51,0.32,53.4701-9.21c14.5399-9.14,26.3099-22.21,35.5499-36.58
       c-16.86-4.65-34.4399-6.67-51.8999-6.26C1300.5,771.93,1277.46,779.07,1260.16,793.99z" />
        <path fill="#F1D4A8" stroke="#F1D4A8" stroke-width="0.5" d="M1073.52,769.89c25.48-0.73,51.12-1.08,76.41,2.58
       c9.0199,1.26,18.1399,2.63,26.6799,5.95c4.47,1.71,8.33,5.68,8.75,10.62c0.87,10.19-1.7,20.36-5.29,29.83
       c-2.8999,6.92-6.1599,14.25-12.37,18.83c-9.0499,5.97-20.23,6.81-30.71,8.01c-22.55,2.86-45.6799,2.71-67.91-2.42
       c-4.8099-1.37-9.95-3.05-13.35-6.89c-9.72-16.53-15.1699-36.29-11.6899-55.44c0.5299-2.31,0.51-5.64,3.3199-6.39
       C1055.6899,771.34,1064.6899,770.61,1073.52,769.89 M1059.49,773.69c-4.86,1.08-9.9299,1.59-14.47,3.69
       c10.73,15.47,23.54,30.41,40.64,38.99c18.1699,8.07,39.02,8.59,58.2899,4.77c-0.22-0.08-0.6599-0.25-0.88-0.33
       c10.6801-2.72,21.67-4.53,31.8501-8.92c-4.29-7.01-10.3301-12.62-16.2301-18.22l1.16,0.4c-9.0499-8.3-20.4299-13.7-31.95-17.68
       C1105.9,768.94,1082.08,769.56,1059.49,773.69z" />


        <g id="eyes">
          <path fill="#2C3D4D" stroke="#2C3D4D" stroke-width="0.5" d="M1059.49,773.69c22.59-4.13,46.41-4.75,68.41,2.7
       c11.52,3.98,22.9,9.38,31.95,17.68l-1.16-0.4c-8.83-3.17-17.9299-5.46-27.0199-7.73c2.0499,4.03,3.61,8.44,3.2899,13.04
       c-0.24,8.92-6.46,17.37-15.0299,20c-9.5901,3.31-20.9601-1.62-25.41-10.66c-4.87-8.97-2.36-20.68,5.1699-27.38
       c-12.99-0.4-25.98,0.94-38.7799,3.07c5.59,15.22,19.0699,26.41,34.0299,31.88c15.29,5.58,32.03,6.99,48.13,4.92
       c0.2201,0.08,0.66,0.25,0.88,0.33c-19.2699,3.82-40.12,3.3-58.2899-4.77c-17.1-8.58-29.91-23.52-40.64-38.99
       C1049.5601,775.28,1054.63,774.77,1059.49,773.69 M1123.24,788.36c-4.27,1.67-4.27,8.58-0.02,10.27c3.11,1.44,6.64-1.39,6.76-4.6
       C1130.51,790.47,1126.77,786.77,1123.24,788.36z" />
          <path fill="#2C3D4D" stroke="#2C3D4D" stroke-width="0.5"
            d="M1260.16,793.99c17.2999-14.92,40.34-22.06,62.9-23.24
       c17.46-0.41,35.0399,1.61,51.8999,6.26c-9.24,14.37-21.01,27.44-35.5499,36.58c-15.9601,9.53-35.36,10.8-53.4701,9.21
       c-3.6299-0.63-7.5499-0.64-10.85-2.41c17.38,2.85,35.7001,1.14,52.12-5.35c14.04-5.69,26.5901-16.54,31.8501-31.03
       c-12.8-2.14-25.78-3.47-38.76-3.07c4.36,4.17,7.49,9.82,7.6599,15.96c0.67,9.9-6.1699,19.92-15.9299,22.28
       c-6.52,2.05-13.9,0.22-19.0801-4.11c-8.59-6.85-10.2-19.89-4.63-29.13c-9.0399,2.26-18.11,4.52-26.87,7.7L1260.16,793.99
        M1312.26,788.35c-4.3,1.66-4.3,8.65,0.01,10.31c3.09,1.3701,6.5599-1.42,6.7-4.59C1319.53,790.51,1315.8,786.78,1312.26,788.35z" />
        </g>

        <g id="inner-eyes">
          <path fill="#FFFFFF" stroke="#FFFFFF" stroke-width="0.5"
            d="M1060.91,784.01c12.7999-2.13,25.7899-3.47,38.7799-3.07
       c-7.5299,6.7-10.0399,18.41-5.1699,27.38c4.45,9.04,15.8199,13.97,25.41,10.66c8.5699-2.63,14.7899-11.08,15.0299-20
       c0.3201-4.6-1.24-9.01-3.2899-13.04c9.09,2.27,18.1899,4.56,27.0199,7.73c5.9,5.6,11.9401,11.21,16.2301,18.22
       c-10.1801,4.39-21.17,6.2-31.8501,8.92c-16.1,2.07-32.84,0.66-48.13-4.92C1079.98,810.42,1066.5,799.23,1060.91,784.01z" />
          <path fill="#FFFFFF" stroke="#FFFFFF" stroke-width="0.5"
            d="M1320.3,780.94c12.98-0.4,25.96,0.93,38.76,3.07
       c-5.26,14.49-17.8101,25.34-31.8501,31.03c-16.4199,6.4901-34.74,8.2-52.12,5.35c-10.11-2.47-20.37-4.49-30.0499-8.43
       c4.26-7.11,10.4199-12.71,16.4099-18.32c8.76-3.18,17.8301-5.44,26.87-7.7c-5.5699,9.24-3.96,22.28,4.63,29.13
       c5.1801,4.33,12.5601,6.16,19.0801,4.11c9.76-2.36,16.6-12.38,15.9299-22.28C1327.79,790.76,1324.66,785.11,1320.3,780.94z" />
        </g>

        <path fill="#FFFFFF" stroke="#FFFFFF" stroke-width="0.5" d="M1123.24,788.36c3.53-1.59,7.27,2.11,6.74,5.67
       c-0.12,3.21-3.65,6.04-6.76,4.6C1118.97,796.94,1118.97,790.03,1123.24,788.36z" />
        <path fill="#FFFFFF" stroke="#FFFFFF" stroke-width="0.5" d="M1312.26,788.35c3.54-1.5699,7.27,2.16,6.71,5.72
       c-0.14,3.17-3.61,5.96-6.7,4.59C1307.96,797,1307.96,790.01,1312.26,788.35z" />
        <path fill="#F1D4A8" stroke="#F1D4A8" stroke-width="0.5" d="M1194.23,800.31c2.24-5.42,8.5801-6.78,13.84-6.9
       c-0.25,31.19,0.1101,62.39-0.1599,93.58c-9.98,2.32-20.04,4.33-29.89,7.13c1.88,5.67,7.21,9.02,12.27,11.59
       c5.5599,2.87,11.62,4.55,17.59,6.38c0.33,14.6299-0.04,29.2599,0.17,43.9c0.0599,3.08-0.17,6.17-0.39,9.26
       c-3.3401-4.58-6.8401-9.86-12.64-11.41c-3.85-1.23-7.55,0.87-11.1,2.06c-9.8201,3.5699-20.61,5.27-30.9401,3.11
       c-4.37-0.94-8.36-3.01-12.3199-4.98c5.14,6.29,6.5299,14.59,11,21.31c11.33,20.42,32.85,35.29,56.4399,36.5099
       c-0.09,1.72-0.16,3.45-0.22,5.2c-7.67,0.18-14.84-2.63-22.1901-4.28c5.17,7.06,14.2301,9.15,22.2201,11.3099
       c0.25,19.9401,0.02,39.89,0.02,59.8401c-16.38-8.77-31.9401-19.02-46.9-30.02c-3.77-2.72-7.1901-5.9501-11.3301-8.11
       c3.6101,7.24,8.8601,13.5,13.1001,20.38c23.0499,33.97,45.97,68.01,69,101.99c11.23,17.0299,23.25,33.5599,33.9399,50.9399
       c-6.09,26.13-14.15,51.79-23.52,76.9301c-22.8099-0.05-45.61-0.0601-68.4099,0.01c-24.16-64.0601-38.67-132.4501-36.42-201.15
       c1.08-3.66,0.61-7.5,0.65-11.25c0.48-5.48,0.34-11.02,1.58-16.4c-0.8-0.03-1.37,0.24-1.72,0.8201
       c-0.0601-6.6901-0.12-13.3701-0.26-20.05c-0.14-4.39,0.27-8.9-1.23-13.11c-0.3101-0.53-0.9301-1.6-1.24-2.13
       c-15.3501-14.64-29.2001-30.75-42.5801-47.17c-0.0399-0.05-0.12-0.15-0.1599-0.2c-2.29-2.92-4.55-5.85-6.8101-8.78
       c-0.05-0.06-0.15-0.2-0.21-0.27c-0.9501-1.2599-1.87-2.5-2.78-3.73c-0.05-0.07-0.15-0.21-0.2-0.28c-2.3-3.23-4.5601-6.47-6.8-9.72
       c-0.05-0.08-0.14-0.22-0.1901-0.3c-8.9199-13.64-17.24-27.73-23.8899-42.63c-0.04-0.09-0.12-0.26-0.16-0.34
       c-1.38-2.98-2.71-5.96-3.96-8.98c0.75-3.54,2.86-6.58,3.96-9.99c6.51-18.29,6.79-38.17,4.79-57.29
       c5.95,2.83,12.45,4.27,18.9199,5.36c22.11,3.93,44.72,2.57,66.97,0.66c9.0601-1.02,18.4901-1.96,26.65-6.39
       c7.75-4.21,12.49-12.08,16.42-19.68C1188.9301,815.77,1191.0601,807.82,1194.23,800.31z" />
        <path fill="#E5BC84" stroke="#E5BC84" stroke-width="0.5"
          d="M1208.0699,793.41c4.1001-0.0099,8.55,0.05,12.13,2.3701
       c2.7201,1.81,3.88,5.04,5.1101,7.92c4.0699,10.4,8.4299,20.9,15.34,29.78c3.6,4.65,8.64,8.08,14.22,9.91
       c10.98,3.63,22.66,3.95,34.11,4.69c13.6,0.73,27.22-0.06,40.8-1c11.74-1.24,23.89-2.6,34.37-8.51
       c-4.36,20.26-5.9401,43.22,5.71,61.45c1.22,2.68,3.96,3.81,6.62,4.58c-2.61,1.13-6.5699,1.08-7.5499,4.3
       c-7.5801,17.1-16.42,33.64-26.37,49.48c-0.03,0.06-0.1001,0.17-0.14,0.23c-0.4501,0.68-1.3401,2.05-1.79,2.73
       c-0.05,0.08-0.15,0.23-0.21,0.31c-1.26,1.9-2.53,3.81-3.8201,5.7c-0.0499,0.07-0.15,0.21-0.2,0.29
       c-1.59,2.26-3.2001,4.51-4.8201,6.75c-0.0399,0.05-0.12,0.16-0.1599,0.21c-1.78,2.41-3.5801,4.79-5.4701,7.11
       c-1.5299,0.13-2.1899,0.95-1.95,2.48c-13.88,17.66-28.78,34.6-44.99,50.17c-0.24,11.22-0.39,22.4401-0.7,33.66
       c-0.42-0.3301-1.26-0.99-1.6801-1.3101c0.48,5.64,1.01,11.27,1.35,16.9301c-0.13,3.73-0.27,7.5,0.5801,11.17
       c1.47,41.7799-3.5,83.59-12.8201,124.2899c-10.6899-17.38-22.71-33.91-33.9399-50.9399c-23.03-33.98-45.9501-68.02-69-101.99
       c-4.24-6.88-9.49-13.14-13.1001-20.38c4.14,2.1599,7.5601,5.39,11.3301,8.11c14.96,11,30.52,21.25,46.9,30.02
       c0-19.9501,0.23-39.9-0.02-59.8401c-7.99-2.16-17.05-4.2499-22.2201-11.3099c7.3501,1.65,14.52,4.46,22.1901,4.28
       c0.0599-1.75,0.13-3.48,0.22-5.2l0.88-0.02c16.66-0.98,32.75-8.58,44.3301-20.56c5.5499-5.65,10.1799-12.18,13.84-19.2
       c3.27-5.89,4.7899-12.65,9.08-17.96c-4.4,2.14-8.84,4.44-13.72,5.25c-10.15,1.62-20.5601-0.12-30.1-3.72
       c-3.5901-1.31-7.51-3.1-11.3101-1.53c-5.66,2.21-9.4399,7.43-12.34,12.54c-0.28-0.35-0.83-1.05-1.1-1.4
       c0.22-3.09,0.45-6.18,0.39-9.26c-0.2101-14.64,0.1599-29.27-0.17-43.9c-5.97-1.83-12.03-3.51-17.59-6.38
       c-5.0601-2.57-10.39-5.92-12.27-11.59c9.85-2.8,19.91-4.81,29.89-7.13C1208.1801,855.8,1207.8199,824.6,1208.0699,793.41z" />


        <g id="right-hand">

          <path class="right-hand p1" fill="#F1D4A8" stroke="#F1D4A8" stroke-width="0.5" d="M1986.37,876.36c2.6801-1.9,6.3-1.4,9.3-0.52
       c-5.16,3.7599-10.04,8.14-12.87,13.97c-4.91,8.88-6.02,19.13-9.4401,28.56c-7.89,22.46-19.09,43.62-31.49,63.89
       c-3.71-1.55-7.22-3.69-11.21-4.43c7.84,6.11,16.71,10.81,24.63,16.85c11.86,8.97,23.7799,18.35,32.5299,30.55
       c1.02,1.38,2.15,2.7001,3.3201,4.01c-1.36-5.94-5.71-10.34-8.6901-15.42c2.17-4.1,5.42-7.54,7.91-11.46
       c11.63-16.69,22.11-34.26,30.02-53.02c2.5699-6.02,3.75-12.78,8.0699-17.91c2.41-3.57,6.9601-4.13,10.77-5.29l0.23-0.06
       c0.0801,8.68-1.1499,17.33-2.22,25.94c-1.63,17.27-5.9299,34.19-10.37,50.94c-11.24,40.71-30.09,79.4-55.9,112.8599
       c-6.1799,7.87-11.37,16.5801-18.6,23.5701c-5.24,7.17-10.78,14.1-15.58,21.59c-5.77,9.05-12.37,17.62-16.55,27.59
       c-7.34-8.5399-15.53-16.34-24.37-23.3099c-0.4-0.3101-1.2-0.9401-1.6-1.25c-0.41-1.27-1.25-1.95-2.53-2.03
       c-0.38-0.22-1.15-0.6799-1.53-0.91c-0.35-1.33-1.2-1.99-2.5399-1.98c-0.51-0.37-1.53-1.11-2.05-1.47
       c-0.0699-0.0599-0.22-0.16-0.29-0.21c-4.6-2.99-9.1599-6.0601-14.0599-8.52c-8.35-4.64-17.16-8.37-26.17-11.5
       c3.04-2.39,0.5901-5.5-0.64-8.02c-3.3999-9.61-5.83-19.52-8.62-29.3c-2.5-8.95-5.2999-17.8099-8.5-26.5299
       c-1.46-6.2001-4.7699-12.05-4.5-18.5601c1.52-14.6,5-28.89,6.9801-43.41c1.2-5.46,2.4099-10.93,3-16.5
       c0.6799-4.32,0.2599-8.74,1.1599-13.03c1.5701-8.83,3.11-17.7,3.63-26.66c0.48-2.36,2.17-4.3,3.84-5.96
       c2.13-1.92,5.1101-1.02,7.63-0.66c1.03,0.3,2.0601,0.65,3.0901,1.07c5.6,2.1,10.6699,5.79,14.15,10.69
       c3.9099,6.74,6.08,14.6,5.1699,22.42c0.49,6.86-2.8199,13.16-3.0599,19.94c-1.1801,9-2.26,19,2.6799,27.13
       c3.74,6.3099,11.1901,8.61,16.14,13.72c11.28,10.3,17.08,25.27,18.39,40.28c0.85-17.34-7-34.39-19.37-46.3
       c-4.55-5.08-11.22-8.24-14.08-14.73c1.0599-2.44,3.62-3.64,5.36-5.54c6.02-7.51,10.9399-15.8,16.85-23.39
       c23.37-32.59,45.74-65.89,69.5599-98.14C1970.2,888.15,1977.99,881.72,1986.37,876.36z" />
          <path class="right-hand p2" fill="#F1D4A8" stroke="#F1D4A8" stroke-width="0.5" d="M1996.1,875.99c2.3101,0.52,4.4601-0.73,6.7001-1.14
       c3.76,0.1801,7.61,0.6801,11.12,2.15c2.9199,2.13,5.22,5.02,8.12,7.22c-3.64,1.42-7.66,2.4301-10.4301,5.36
       c-4.48,4.47-7.3099,10.51-8.14,16.77c-1.3099,8.41-4.5399,16.36-8.08,24.04c-8.1901,17.77-18.5,34.46-29.1901,50.8
       c-2.5499,3.48-4.7799,7.22-7.5599,10.52c-1.1801,0.36-2.16-0.78-3.14-1.18c-3.9-2.4901-7.9399-4.7401-11.77-7.32
       c15.36-21.85,28.65-45.4901,36.23-71.22c2.5801-8.5,3.11-18.01,8.8301-25.22c2.74-4.2,6.9399-7.03,11.1599-9.57
       C1998.63,876.78,1997.36,876.39,1996.1,875.99z" />
          <path class="right-hand p3" fill="#E5BC84" stroke="#E5BC84" stroke-width="0.5" d="M1995.67,875.84l0.4299,0.15c1.26,0.4,2.53,0.79,3.85,1.21
       c-4.22,2.54-8.4199,5.37-11.1599,9.57c-5.7201,7.21-6.25,16.72-8.8301,25.22c-7.58,25.73-20.87,49.37-36.23,71.22
       c3.8301,2.58,7.87,4.83,11.77,7.32c0.98,0.4,1.96,1.54,3.14,1.18c2.78-3.3,5.01-7.04,7.5599-10.52
       c10.6901-16.34,21-33.03,29.1901-50.8c3.54-7.68,6.77-15.63,8.08-24.04c0.8301-6.2599,3.66-12.3,8.14-16.77
       c2.77-2.93,6.79-3.94,10.4301-5.36c2.9399,0.9901,6.3999,1.6,8.36,4.3c-6.27-0.55-13.36,0.05-17.78,5.09
       c-6.45,6.37-5.47,16.02-7.99,24.06c-7.13,26.07-21.89,49.36-38.75,70.2c-1.52,2.02-3.61,3.71-4.5699,6.08
       c0.33,1.09,1.58,1.57,2.4099,2.35c6.12,4.58,11.8201,9.77,16.72,15.66c10.64-14.85,20.28-30.44,29.14-46.44
       c4.75-8.61,9.03-17.53,11.99-26.92c1.4801-4.7,4.5601-8.7,8.3301-11.8c-0.4-0.89-0.75-1.78-1.0701-2.65l0.64,0.3
       c0.5,0.23,1.51,0.7,2.02,0.93c2.5701-0.4,5.36-0.63,7.73,0.76c-3.8099,1.16-8.36,1.72-10.77,5.29
       c-4.3199,5.13-5.5,11.89-8.0699,17.91c-7.91,18.7599-18.39,36.33-30.02,53.02c-2.49,3.92-5.74,7.36-7.91,11.46
       c2.9801,5.08,7.3301,9.48,8.6901,15.42c-1.17-1.3099-2.3-2.63-3.3201-4.01c-8.75-12.2-20.6699-21.58-32.5299-30.55
       c-7.92-6.04-16.79-10.74-24.63-16.85c3.99,0.74,7.5,2.88,11.21,4.43c12.4-20.27,23.6-41.43,31.49-63.89
       c3.42-9.43,4.53-19.68,9.4401-28.56C1985.63,883.98,1990.51,879.6,1995.67,875.84z" />
          <path class="right-hand p4" fill="#F1D4A8" stroke="#F1D4A8" stroke-width="0.5" d="M2012.62,893.61c4.42-5.04,11.51-5.64,17.78-5.09l0.5599,0.01
       c4.7101,11.49,2.4601,24.3799-1.0599,35.8799l-0.4301,0.04l-0.64-0.3c0.3201,0.87,0.67,1.7599,1.0701,2.65
       c-3.77,3.1-6.85,7.1-8.3301,11.8c-2.96,9.39-7.24,18.31-11.99,26.92c-8.86,16-18.5,31.59-29.14,46.44
       c-4.8999-5.89-10.6-11.08-16.72-15.66c-0.83-0.78-2.08-1.26-2.4099-2.35c0.96-2.37,3.0499-4.06,4.5699-6.08
       c16.86-20.84,31.62-44.13,38.75-70.2C2007.15,909.63,2006.17,899.98,2012.62,893.61z" />
          <path class="right-hand p5" fill="#E5BC84" stroke="#E5BC84" stroke-width="0.5" d="M1871.1,1030.01c-4.9399-8.13-3.86-18.13-2.6799-27.13
       c-0.13,4.06-0.0701,8.13,0.3099,12.18c0.64,2.4,1.38,4.79,2.04,7.21c0.35,0.18,1.0599,0.54,1.41,0.71
       c2.86,6.49,9.5299,9.65,14.08,14.73c12.37,11.91,20.22,28.9601,19.37,46.3c-1.3101-15.01-7.11-29.98-18.39-40.28
       C1882.29,1038.62,1874.84,1036.3199,1871.1,1030.01z" />
        </g>





        <path opacity="0.83" fill="#9D866A" stroke="#9D866A" stroke-width="0.5" enable-background="new    " d="M1051.39,919.35
       c0.04,0.08,0.12,0.25,0.16,0.34C1051.51,919.6,1051.4301,919.43,1051.39,919.35z" />
        <g id="lips">
          <path id="left-lips" fill="#E97954" stroke="#E97954" stroke-width="0.5" d="M1140.66,954.03c3.96,1.97,7.95,4.04,12.3199,4.98
       c10.3301,2.16,21.12,0.46,30.9401-3.11c3.5499-1.19,7.25-3.29,11.1-2.06c5.7999,1.55,9.2999,6.83,12.64,11.41
       c0.27,0.35,0.8199,1.05,1.1,1.4c-0.21,0.37-0.63,1.11-0.83,1.48c-2.38,0.15-4.7101,0.5-7.05,0.74c-17.37,1.07-35.97,1.6-51.87-6.58
       c7.1,12.6,17.08,23.9,29.9299,30.82c8.8701,4.85,19.02,7.05,29.1001,6.94l0.8999-0.01c-0.0199,3.93-0.0099,7.86,0.04,11.79
       l-0.88,0.02c-23.59-1.22-45.11-16.09-56.4399-36.5099C1147.1899,968.62,1145.8,960.32,1140.66,954.03z" />
          <path id="right-lips" fill="#D47150" stroke="#D47150" stroke-width="0.5" d="M1208.76,966.65c2.9-5.11,6.6799-10.33,12.34-12.54
       c3.8-1.57,7.72,0.22,11.3101,1.53c9.5399,3.6,19.95,5.34,30.1,3.72c4.88-0.81,9.3199-3.11,13.72-5.25
       c-4.29,5.31-5.8099,12.07-9.08,17.96c-3.66,7.02-8.29,13.55-13.84,19.2c-11.5801,11.98-27.67,19.58-44.3301,20.56
       c-0.0499-3.93-0.0599-7.86-0.04-11.79c15.6201,0.23,30.88-6.3,42.0901-17.06c6.02-5.74,11.3099-12.32,15.1799-19.7
       c-18.2799,8.0699-38.89,6.59-58.2799,4.85C1208.13,967.76,1208.55,967.02,1208.76,966.65z" />
        </g>
        <path opacity="0.8" fill="#826849" stroke="#826849" stroke-width="0.5" enable-background="new    " d="M1342.42,958.61
       c0.0399-0.06,0.11-0.17,0.14-0.23C1342.53,958.44,1342.46,958.55,1342.42,958.61z" />
        <path opacity="0.83" fill="#947754" stroke="#947754" stroke-width="0.5" enable-background="new    " d="M1340.42,961.65
       c0.0599-0.08,0.1599-0.23,0.21-0.31C1340.58,961.42,1340.48,961.57,1340.42,961.65z" />
        <path opacity="0.77" fill="#73604C" stroke="#73604C" stroke-width="0.5" enable-background="new    " d="M1075.4399,962.32
       c0.05,0.08,0.14,0.22,0.1901,0.3C1075.58,962.54,1075.49,962.4,1075.4399,962.32z" />
        <path fill="#FFFFFF" stroke="#FFFFFF" stroke-width="0.5" d="M1149.01,962.29c15.9,8.18,34.5,7.65,51.87,6.58
       c2.34-0.04,4.7,0.04,7.0599,0.1c0.13,10.35-0.0399,20.72,0.1001,31.08c-10.0801,0.11-20.23-2.09-29.1001-6.94
       C1166.09,986.19,1156.11,974.89,1149.01,962.29z" />
        <path fill="#EBEBEB" stroke="#EBEBEB" stroke-width="0.5"
          d="M1207.9301,968.13c19.3899,1.74,40,3.22,58.2799-4.85
       c-3.87,7.3799-9.1599,13.96-15.1799,19.7c-11.2101,10.76-26.47,17.29-42.0901,17.06l-0.8999,0.01
       c-0.14-10.36,0.0299-20.73-0.1001-31.08c-2.36-0.06-4.72-0.14-7.0599-0.1C1203.22,968.63,1205.55,968.28,1207.9301,968.13z" />
        <path opacity="0.8" fill="#846A4B" stroke="#846A4B" stroke-width="0.5" enable-background="new    " d="M1336.4,967.64
       c0.0499-0.08,0.15-0.22,0.2-0.29C1336.55,967.42,1336.45,967.56,1336.4,967.64z" />
        <path opacity="0.77" fill="#73604C" stroke="#73604C" stroke-width="0.5" enable-background="new    " d="M1082.4301,972.34
       c0.0499,0.0699,0.1499,0.21,0.2,0.28C1082.58,972.55,1082.48,972.41,1082.4301,972.34z" />
        <path opacity="0.8" fill="#856A4B" stroke="#856A4B" stroke-width="0.5" enable-background="new    " d="M1331.42,974.6
       c0.0399-0.05,0.12-0.16,0.1599-0.21C1331.54,974.44,1331.46,974.55,1331.42,974.6z" />
        <path opacity="0.78" fill="#7F6C55" stroke="#7F6C55" stroke-width="0.5" enable-background="new    " d="M1085.41,976.35
       c0.0599,0.07,0.1599,0.21,0.21,0.27C1085.5699,976.56,1085.47,976.42,1085.41,976.35z" />
        <path opacity="0.89" fill="#B08F65" stroke="#B08F65" stroke-width="0.5" enable-background="new    " d="M1324,984.19
       c-0.24-1.53,0.42-2.35,1.95-2.48C1325.87,983,1325.22,983.82,1324,984.19z" />
        <path opacity="0.79" fill="#87725B" stroke="#87725B" stroke-width="0.5" enable-background="new    " d="M1092.4301,985.4
       c0.0399,0.05,0.12,0.15,0.1599,0.2C1092.55,985.55,1092.47,985.45,1092.4301,985.4z" />

        <path opacity="0.79" fill="#402F25" stroke="#402F25" stroke-width="0.5" enable-background="new    " d="M1135.17,1032.77
       c0.3099,0.53,0.9299,1.6,1.24,2.13C1136.1,1034.37,1135.48,1033.3,1135.17,1032.77z" />
        <path fill="#B13B75" stroke="#B13B75" stroke-width="0.5" d="M1137.9,1068.0601c0.35-0.5801,0.9199-0.8501,1.72-0.8201
       c-1.24,5.38-1.1,10.92-1.58,16.4c-1.11,3.66-1.4301,7.47-0.65,11.25c-2.25,68.7,12.26,137.09,36.42,201.15
       c6.8899,18.26,14.6699,36.1899,23.3999,53.6499c1.41,2.77,3.0901,5.4,4.74,8.05c1.2201,3.99,3.4501,7.55,5.16,11.34
       c-15.4399-8.36-29.64-18.9299-43.38-29.85c-8.99-7.29-17.53-15.12-25.5499-23.47c-14.5701-13.91-27.37-29.65-38.37-46.52
       c-3.8101-6.29-8.3601-12.3099-10.9401-19.22c1.63-4.5701,5.28-8.12,7.96-12.12c6.28-8.98,13.2301-17.49,19.15-26.7101
       c-6.49-4.49-13.9299-7.2799-20.64-11.3899c-9.0299-4.75-18.24-9.15-27.09-14.2301c2.8-16.2,10.17-31.12,17.76-45.5399
       c9.36-17.3101,20.62-33.55,32.8-48.98C1124.85,1083.14,1131.0699,1075.25,1137.9,1068.0601z" />
        <path fill="#972E62" stroke="#972E62" stroke-width="0.5" d="M1276.63,1066.71c0.42,0.3201,1.26,0.98,1.6801,1.3101
       c5.5099,6.24,10.73,12.74,16.1,19.11c12.58,16.49,24.9199,33.26,34.85,51.52c7.78,14.9,15.6799,30.1699,18.47,46.9299
       c-9.45,5.4401-19.3199,10.0601-28.9,15.25c-6.14,3.8501-13.23,6.0801-18.87,10.7201c8.39,11.73,17.0901,23.24,25.5,34.95
       c1.36,1.6801,2.2201,3.92,0.8401,5.9c-12.78,23.16-28.92,44.5499-48.04,62.87c-12.99,13.8099-27.67,25.9299-43.08,36.9399
       c-8.39,6.16-17.14,11.86-26.1901,16.98c2.52-6.74,7.22-12.5299,8.85-19.61c4.7201-8.89,9.61-17.72,13.62-26.97
       c3.74-8.7999,7.3501-17.65,10.76-26.58c9.37-25.14,17.4301-50.8,23.52-76.9301c9.3201-40.7,14.29-82.51,12.8201-124.2899
       c0.7999-3.7401,0.6699-7.5601-0.5801-11.17C1277.64,1077.98,1277.11,1072.35,1276.63,1066.71z" />
        <path opacity="0.98" fill="#813052" stroke="#813052" stroke-width="0.5" enable-background="new    " d="M1137.39,1094.89
       c-0.78-3.78-0.46-7.59,0.65-11.25C1138,1087.39,1138.47,1091.23,1137.39,1094.89z" />
        <path opacity="0.97" fill="#712746" stroke="#712746" stroke-width="0.5" enable-background="new    " d="M1277.98,1083.64
       c1.25,3.61,1.38,7.4299,0.5801,11.17C1277.71,1091.14,1277.85,1087.37,1277.98,1083.64z" />
        <path fill="#842A56" stroke="#842A56" stroke-width="0.5"
          d="M1294.41,1087.13c13.4399,0.79,26.51,4.55,39.5,7.89
       c10.65,2.89,21.11,6.4399,31.5499,10c21.3301,7.62,42.3101,16.1899,62.9401,25.52c18.99,8.37,37.38,18.02,56.1799,26.8099
       c2.9,1.28,5.3201,3.4,7.1901,5.97c11.71,12.6801,24.03,25.03,33.41,39.62c8.0199,13.1201,15.5499,26.54,22.7699,40.1101
       c1.4301,2.7799,3.76,4.9199,5.8201,7.25c29.5499,32.76,59.09,65.5299,88.63,98.2899c1.72,1.9401,3.28,4.0701,5.35,5.6901
       c8.12,6.52,16.14,13.1599,24.24,19.7c16.1801-22.13,32.16-44.4199,48.4-66.5c10.4-13.6,21.52-26.64,31.48-40.58
       c24.3101-33.67,47.54-68.09,70.29-102.8201c5.84-9.13,11.97-18.08,17.49-27.3999c11.01,2.73,21.2999,7.6,31.61,12.21
       c4.9,2.46,9.46,5.53,14.0599,8.52c0.0701,0.0499,0.2201,0.15,0.29,0.21c0.52,0.36,1.54,1.1,2.05,1.47
       c0.21,1.4301,1.0499,2.0901,2.5399,1.98c0.38,0.2301,1.15,0.6901,1.53,0.91c0.14,1.51,0.99,2.1801,2.53,2.03
       c0.4,0.3099,1.2,0.9399,1.6,1.25c8.61,7.83,17.1801,15.75,24.6901,24.6799c-28.01,59.4-57.0601,118.3-86.9801,176.75
       c-16.4399,31.9401-33.22,63.7201-50.8199,95.04c-14.02,24.61-28.16,49.24-44.7,72.27c-5.4301,7.0601-10.55,15.22-19.0801,18.84
       c-3.26,0.55-6.96,1.8401-10.0499,0.1801c-66.27-29.46-131.66-61.97-190.9501-104.0601c-18.5499-13-36.83-26.4099-54.34-40.77
       c-0.86,0.13-1.7,0.28-2.52,0.4401c-8.71,38.01-22.91,75.78-47.87,106.22c1.22,2.9401-0.08,6.0801-0.23,9.11
       c-5.49,47.8101-8.3101,95.9401-8.25,144.0701c0.2,44.83,2.8,89.83,11.0599,133.96c2.66,14.83,6.5901,29.37,10.55,43.9
       c4.08,21.24,7.72,42.5699,11.6,63.86c-1.08,0.86-2.13,1.76-3.21,2.63c-24.0601,18.85-51.6901,32.74-80.39,43.03
       c-34.97,12.58-71.5599,20.2999-108.42,24.6899c-4.6799,0.5701-9.38,1.01-14.08,1.29c-7.7-39.52-15.11-79.11-22.8-118.63
       c-0.38-1.74-0.7899-3.41-1.12-5.12c0.12-65.08,0-130.15,0.0601-195.23c3.98-0.91,7.25-3.7201,8.97-7.38
       c4.34-9,4.12-20.3401-1.09-28.92c-1.64-3.02-4.8-4.5-7.88-5.5699c-0.0701-18.67,0.1-37.3401-0.0601-56.01
       c4.8-1.27,8.4601-5.03,10.02-9.6801c3.04-8.61,2.88-18.87-2.0599-26.74c-1.73-2.97-4.8401-4.54-7.9301-5.67
       c0.0701-50.7899,0-101.58,0.02-152.37c-0.1-1.83-0.23-3.63-0.48-5.4099c4.45-4.28,6.58-10.25,10.3199-15.0801
       c-1.63,7.0801-6.33,12.87-8.85,19.61c9.05-5.12,17.8-10.8199,26.1901-16.98c15.4099-11.01,30.09-23.13,43.08-36.9399
       c19.12-18.3201,35.26-39.71,48.04-62.87c1.38-1.98,0.5199-4.22-0.8401-5.9c-8.4099-11.71-17.11-23.22-25.5-34.95
       c5.64-4.64,12.73-6.87,18.87-10.7201c9.5801-5.1899,19.4501-9.8099,28.9-15.25c-2.79-16.76-10.6899-32.0299-18.47-46.9299
       C1319.33,1120.39,1306.99,1103.62,1294.41,1087.13 M1309.09,1787.28c-24.4199,6.98-49.0599,13.33-74.02,17.98
       c2.4801,7.95,4.9701,15.92,7.9901,23.6899c11.5099-2.9099,23.1-5.5,34.6299-8.37c30.3301-8,60.8701-15.4199,90.6801-25.23
       c4.85-2.01,10.1801-3.34,14.4-6.58c-1.1801-7.3201-3.17-14.5-4.9501-21.67C1354.96,1773.97,1332.15,1781.0699,1309.09,1787.28z" />
        <path fill="#9A3265" stroke="#9A3265" stroke-width="0.5" d="M1068.23,1104.01c16.66-5.08,33.65-8.9301,50.5801-12.96
       c-12.1801,15.4299-23.4401,31.6699-32.8,48.98c-7.59,14.4199-14.96,29.34-17.76,45.5399c8.85,5.0801,18.0601,9.4801,27.09,14.2301
       c6.7101,4.11,14.15,6.8999,20.64,11.3899c-5.9199,9.2201-12.87,17.7301-19.15,26.7101c-2.6799,4-6.33,7.5499-7.96,12.12
       c2.58,6.91,7.13,12.9299,10.9401,19.22c11,16.87,23.7999,32.61,38.37,46.52c8.0199,8.35,16.5599,16.1799,25.5499,23.47
       c13.74,10.92,27.9401,21.49,43.38,29.85c-1.71-3.7899-3.9399-7.35-5.16-11.34c1.9801,2.1901,3.9701,4.4,5.5701,6.92
       c0.25,1.7799,0.38,3.58,0.48,5.4099c-0.02,50.79,0.05,101.5801-0.02,152.37c-5.04,1.3601-8.7,5.4601-10.15,10.4
       c-3.0599,8.42-2.38,18.3101,2.24,26.04c1.66,2.99,4.8401,4.4399,7.88,5.65c0.16,18.6699-0.01,37.34,0.0601,56.01
       c-7.5701,1.74-10.84,9.6499-11.71,16.62c-0.8401,7.37,0.23,15.58,5.1699,21.4299c1.6,2.0701,4.0901,3.0801,6.54,3.8201
       c-0.0601,65.08,0.0599,130.15-0.0601,195.23c-0.33,1.73-0.6699,3.47-1.01,5.24c-7.3799,39.98-14.2999,80.05-21.87,120
       c-49.62-2.99-97.2899-19.54-142.21-39.98c-0.9,0.1899-1.78,0.41-2.65,0.65c-17.2499-10.63-35.54-19.41-52.84-29.9401
       c4.15-2.96,8.14-6.59,9.7-11.61c9.5,3.04,18.89,6.4399,28.44,9.3199c6.75,0.76,14.97,1.7201,20.3-3.47
       c3.5699-3.21,5.1-7.9,7.1599-12.09c3.67,0.74,7.91,1.7,11.3-0.46c1.9299-1.66,2.58-4.27,3.75-6.42
       c3.51-7.53,10.63-13.74,10.26-22.6801c5.76-1.5199,9.4299-6.9399,11.25-12.2999c1.76-4.78,1.95-9.92,2.1-14.9501
       c0.46-4.72-2.45-8.74-4.7-12.6c-0.15-0.71-0.4301-2.12-0.5801-2.83c4.28-2.85,7.27-7.1801,9.38-11.79
       c22.61,6.21,45.41,11.72,68.22,17.21c2.9401-7.8199,5.53-15.7699,7.9401-23.7599c-26.02-4.8401-51.7001-11.3601-77.05-18.91
       c-4.6699-7.5-10.2799-14.35-16.08-21c-6.04-6.6901-12.5-13.23-20.39-17.73c-7.46-4.1001-16.02-5.3101-24.33-6.4301
       c-9.5-1.35-19.45-1.48-28.53,2.01c8.16-61.97,8.1-124.79,3.73-187.0599c-0.98-11.02-1.21-22.1801-3.88-32.9601
       c-1.24-5.75-6.08-9.5499-9.28-14.1799c-13.63-18.05-23.76-38.54-31.4-59.77c-37.13,43.0399-74.16,86.1699-111.25,129.24
       c-3.5,4.29-7.48,8.2-10.67,12.74c-2.06,8.85,5.71,15.3199,8.63,22.92c-1.09,3.3899-4.85,4.7799-7.39,6.9399
       c17.11,31.01,36.14,61.04,57.76,89.12c10.04,13.1801,21.31,25.39,33.42,36.7001c4.22,4.1599,8.97,7.7599,13.02,12.1
       c7.58,7.0299,15.77,13.34,23.96,19.6599c0.52-0.33,1.57-1.0099,2.1-1.34c-1.13,1.4401-2.25,2.91-3.49,4.27
       c-3.25,3.14-6.33,6.45-9.25,9.91c-10.38,11.9-20.3,24.2999-27.97,38.1599c-5.71,10.27-11.01,21-13.33,32.6101
       c-0.91,4.49-1.91,9.1399-1.11,13.75c1.69,2.48,3.97,4.5099,6.1,6.6399c-4.12,3.65-9.16,6.0801-13.1,10.01
       c-3.35-1.7699-5.54-4.8999-8.01-7.63c-27.5-31.1699-55.06-62.2699-82.55-93.4299c-25.44-28.65-50.23-57.86-74.33-87.64
       c-3.45-4.08-6.42-8.53-9.0099-13.1901c-17.1-29.24-34.19-58.48-51.3-87.71c-7.74-11.48-7.99-26.28-5.1299-39.39
       c1.93-8.5399,4.74-16.98,9.4399-24.4299c36.48-61.12,73.45-121.98,112.48-181.51c3.93-5.72,7.39-11.79,12.07-16.9401
       c11.42-13.8199,20.75-29.1699,31.12-43.76c25.95-37.73,51.85-75.5,77.82-113.21c2.19-2.8199,3.42-6.1899,5.04-9.33
       c0.75,0.11,2.26,0.33,3.01,0.4399c0.1-1.3199,0.63-2.37,1.6-3.1699c0.09-0.4601,0.26-1.39,0.35-1.8501
       c15.86-9.36,30.68-20.4299,46.75-29.49c20.33-12.01,42.02-21.5599,64.3699-29.14C1053.24,1108.66,1060.72,1106.26,1068.23,1104.01z
       " />
        <path opacity="0.77" fill="#B39275" stroke="#B39275" stroke-width="0.5" enable-background="new    " d="M1885.3199,1157.41
       c0.0701,0.0499,0.2201,0.15,0.29,0.21C1885.54,1157.5601,1885.39,1157.46,1885.3199,1157.41z" />
        <path opacity="0.82" fill="#9C6865" stroke="#9C6865" stroke-width="0.5" enable-background="new    " d="M1887.66,1159.09
       c1.34-0.01,2.1899,0.65,2.5399,1.98C1888.71,1161.1801,1887.87,1160.52,1887.66,1159.09z" />
        <path opacity="0.77" fill="#936260" stroke="#936260" stroke-width="0.5" enable-background="new    " d="M1891.73,1161.98
       c1.28,0.0801,2.12,0.76,2.53,2.03C1892.72,1164.16,1891.87,1163.49,1891.73,1161.98z" />
        <path fill="#282341" stroke="#282341" stroke-width="0.5"
          d="M1173.8101,1296.04c22.7999-0.0701,45.6-0.0601,68.4099-0.01
       c-3.4099,8.9299-7.02,17.78-10.76,26.58c-4.01,9.25-8.8999,18.08-13.62,26.97c-3.74,4.8301-5.87,10.8-10.3199,15.0801
       c-1.6-2.52-3.59-4.73-5.5701-6.92c-1.6499-2.65-3.33-5.28-4.74-8.05C1188.48,1332.23,1180.7,1314.3,1173.8101,1296.04z" />
        <path fill="#B13B75" stroke="#B13B75" stroke-width="0.5" d="M1197.83,1532.84c1.4501-4.9399,5.11-9.0399,10.15-10.4
       c3.09,1.13,6.2001,2.7001,7.9301,5.67c4.9399,7.87,5.1,18.13,2.0599,26.74c-1.5599,4.65-5.22,8.41-10.02,9.6801
       c-3.0399-1.2101-6.22-2.66-7.88-5.65C1195.45,1551.15,1194.77,1541.26,1197.83,1532.84z" />
        <path fill="#B13B75" stroke="#B13B75" stroke-width="0.5" d="M1196.3,1637.16c0.87-6.9701,4.1399-14.88,11.71-16.62
       c3.08,1.0699,6.24,2.5499,7.88,5.5699c5.21,8.58,5.4299,19.92,1.09,28.92c-1.72,3.6599-4.99,6.47-8.97,7.38
       c-2.45-0.74-4.9401-1.75-6.54-3.8201C1196.53,1652.74,1195.46,1644.53,1196.3,1637.16z" />
        <path fill="#F1D4A8" stroke="#F1D4A8" stroke-width="0.5" d="M1005.51,1743.12c9.08-3.49,19.03-3.36,28.53-2.01
       c8.3099,1.12,16.87,2.33,24.33,6.4301c7.89,4.5,14.35,11.0399,20.39,17.73c5.8,6.65,11.41,13.5,16.08,21
       c5.1,7.5599,5.01,17.48,0.89,25.46c-2.11,4.61-5.1,8.9401-9.38,11.79c-7.88-15.48-18.5-29.89-32.28-40.63
       c-3.5099-2.9401-7.0499-6.0601-11.47-7.51c-9.16-3.15-18.97-3.8-28.59-3.71c-4.14,0.0599-8.41-0.5801-12.37,0.74
       c12.64,2.0699,25.53,2.85,38.01,5.9399c6.36,1.38,10.9399,6.3,15.91,10.13c8.5099,7.4501,16.7999,15.42,22.84,25.0701
       c3.0699,4.12,4.9299,9.0599,8.53,12.7999c2.25,3.86,5.1599,7.88,4.7,12.6c-0.15,5.03-0.34,10.17-2.1,14.9501
       c-1.8201,5.36-5.49,10.78-11.25,12.2999c0.37,8.9401-6.75,15.15-10.26,22.6801c-1.17,2.15-1.8201,4.76-3.75,6.42
       c-3.39,2.1599-7.63,1.2-11.3,0.46c-2.0599,4.1899-3.59,8.88-7.1599,12.09c-5.3301,5.1901-13.55,4.23-20.3,3.47
       c-9.55-2.88-18.94-6.2799-28.44-9.3199c-1.56,5.02-5.55,8.65-9.7,11.61c-1.72,0.96-3.51,1.8201-5.36,2.51
       c-4.76,0.95-9.72,2.1801-14.51,0.61c-5.25-0.98-9.45-4.5599-12.74-8.5599c-2.25-2.8301-5.56-4.4501-8.28-6.7301
       c-7.56-5.74-14.29-12.47-21.27-18.87c-2.13-2.13-4.41-4.1599-6.1-6.6399c-0.8-4.6101,0.2-9.26,1.11-13.75
       c2.32-11.6101,7.6201-22.3401,13.33-32.6101c7.67-13.86,17.59-26.2599,27.97-38.1599c0.3,4.5599-1.23,8.97-1.28,13.5399
       c-0.28,4.25,0.34,8.74-1.49,12.75c-5.49,12.65-5.07,26.9-3.2,40.3c0.72-10.67,1.92-21.35,4.81-31.67
       c1.08-5.1499,3.85-10,3.43-15.39c-0.2599-4.9199,0.1-9.8899,1.55-14.61c1.3199-5.13,3.97-9.76,5.43-14.83
       c1.24-1.36,2.36-2.83,3.49-4.27c2.09-2.62,4.82-4.7,6.64-7.52c0.97-4.2999,1.22-9.09,4.12-12.64c3.44-3.3899,8.12-5.1,11.7-8.3199
       C999.32,1746.41,1002.04,1744.04,1005.51,1743.12 M981.89,1808.36c19.31,5.98,38.48,12.8101,56.4299,22.1901
       c6.3301,3.0599,12.3301,6.7999,17.6801,11.38c6.87,5.49,12.21,12.5199,17.97,19.1c-3.62-10.02-11.11-18.13-18.9-25.15
       c-16.5399-14.26-37.5399-22.3101-58.7999-26.26C991.55,1809.03,986.44,1807.15,981.89,1808.36 M982.71,1848.83
       c1.6,2.3401,4.19,3.5801,6.6,4.92c10.04,5.83,20.6,10.66,31,15.79c6.61,3.39,14.08,4.7799,20.3701,8.8199
       c4.59,2.59,7.8999,6.75,11.1599,10.79c-0.26-5.54-4.6-10.23-9.2-12.85c-15.01-6.91-29.89-14.0601-44.91-20.9601
       C992.75,1853.12,988.05,1850.13,982.71,1848.83z" />
        <path fill="#972E62" stroke="#972E62" stroke-width="0.5" d="M1309.09,1787.28c23.0601-6.2101,45.87-13.3101,68.73-20.1801
       c1.78,7.17,3.77,14.35,4.9501,21.67c-4.22,3.24-9.55,4.5699-14.4,6.58c-29.8099,9.8101-60.35,17.23-90.6801,25.23
       c-11.5299,2.87-23.12,5.4601-34.6299,8.37c-3.02-7.7699-5.51-15.74-7.9901-23.6899
       C1260.03,1800.61,1284.67,1794.26,1309.09,1787.28z" />
        <path fill="#E5BC84" stroke="#E5BC84" stroke-width="0.5" d="M1001.64,1772.41c3.96-1.3201,8.23-0.6801,12.37-0.74
       c9.62-0.0901,19.4299,0.5599,28.59,3.71c4.42,1.45,7.9601,4.5699,11.47,7.51c13.78,10.74,24.4,25.15,32.28,40.63
       c0.15,0.71,0.4301,2.12,0.5801,2.83c-3.6001-3.74-5.4601-8.6799-8.53-12.7999c-6.04-9.65-14.3301-17.62-22.84-25.0701
       c-4.9701-3.83-9.55-8.75-15.91-10.13C1027.17,1775.26,1014.28,1774.48,1001.64,1772.41z" />
        <path fill="#E5BC84" stroke="#E5BC84" stroke-width="0.5" d="M961.52,1791.41c2.92-3.4601,6-6.77,9.25-9.91
       c-1.46,5.0699-4.11,9.7-5.43,14.83c-1.45,4.7201-1.81,9.6901-1.55,14.61c0.42,5.39-2.35,10.2401-3.43,15.39
       c-2.89,10.3201-4.09,21-4.81,31.67c-1.87-13.4-2.29-27.65,3.2-40.3c1.83-4.01,1.21-8.5,1.49-12.75
       C960.29,1800.38,961.82,1795.97,961.52,1791.41z" />
        <path fill="#B13B75" stroke="#B13B75" stroke-width="0.5"
          d="M1094.84,1786.27c25.35,7.5499,51.03,14.0699,77.05,18.91
       c-2.41,7.99-5,15.9399-7.9401,23.7599c-22.8099-5.49-45.61-11-68.22-17.21C1099.85,1803.75,1099.9399,1793.83,1094.84,1786.27z" />
        <path fill="#E5BC84" stroke="#E5BC84" stroke-width="0.5" d="M981.89,1808.36c4.55-1.21,9.66,0.67,14.38,1.26
       c21.26,3.95,42.26,12,58.7999,26.26c7.79,7.02,15.28,15.13,18.9,25.15c-5.76-6.5801-11.1-13.61-17.97-19.1
       c-5.35-4.5801-11.35-8.3201-17.6801-11.38C1020.37,1821.17,1001.2,1814.34,981.89,1808.36z" />
        <path fill="#E5BC84" stroke="#E5BC84" stroke-width="0.5"
          d="M982.71,1848.83c5.34,1.3,10.04,4.29,15.02,6.51
       c15.02,6.9,29.9,14.05,44.91,20.9601c4.6,2.62,8.9399,7.3099,9.2,12.85c-3.26-4.04-6.5699-8.2001-11.1599-10.79
       c-6.29-4.04-13.76-5.4299-20.3701-8.8199c-10.4-5.13-20.96-9.9601-31-15.79C986.9,1852.41,984.31,1851.17,982.71,1848.83z" />
        <path fill="#282341" stroke="#282341" stroke-width="0.5" d="M1206.9399,1862.88l1.03-0.08c0.0801,176.73,0,353.46,0.04,530.1899
       c-0.0601,4.24-0.01,8.5,0.27,12.77l0.01,0.3c-6.79-0.78-13.6001-1.3901-20.39-2.1702c-1.3,0.1802-3.78-1.23-4.04,0.8201
       c-23.9-3.0801-47.96-4.99-71.91-7.7c-37.6599-3.79-75.2899-7.78-112.9399-11.6101c-4.34-0.5298-8.78-0.46-12.95-1.8799
       c-9.89-1.96-20.06-2.24-30.06-3.52c-13.18-65.0801-16.33-131.8301-13.92-198.0601c3.36-86.2,16.12-171.86,34.93-255.98
       c0.59-2.88,1.56-5.71,1.56-8.6599c1.14-0.4,2.3-0.76,3.44-1.1801c1.85-0.6899,3.64-1.55,5.36-2.51
       c17.3,10.53,35.59,19.3101,52.84,29.9401c0.87-0.24,1.75-0.4601,2.65-0.65c44.92,20.4399,92.59,36.99,142.21,39.98
       C1192.64,1942.9301,1199.5601,1902.86,1206.9399,1862.88z" />
        <path fill="#1C192E" stroke="#1C192E" stroke-width="0.5" d="M1207.97,1862.8l1.1-0.04c7.6901,39.52,15.1001,79.11,22.8,118.63
       c4.7-0.28,9.4-0.72,14.08-1.29c36.8601-4.39,73.4501-12.11,108.42-24.6899c28.7-10.29,56.33-24.1801,80.39-43.03
       c14.87,62.58,25.76,126.12,32.48,190.09c5.42,52.3101,7.73,105,5.6801,157.5701c-1.62,40.25-5.91,80.45-13.92,119.95
       c-8.53,0.8801-17.05,1.79-25.5699,2.6101c-0.1101,0.48-0.3301,1.4299-0.4401,1.9099c-62.67,6.05-125.29,12.9199-187.95,19.2
       c-3.4701,0.03-6.8201,0.8801-10.03,2.0901c-0.02-0.6799-0.04-2.03-0.0601-2.71c-8.88,0.8999-17.84,1.98-26.6699,2.6699
       c-0.28-4.27-0.3301-8.53-0.27-12.77C1207.97,2216.26,1208.05,2039.53,1207.97,1862.8z" />
        <path opacity="0.29" fill="#2D0E1D" stroke="#2D0E1D" stroke-width="0.5" enable-background="new    " d="M902.25,1898.3101
       C902.74,1898.8101,902.74,1898.8101,902.25,1898.3101z" />
</svg>
